<?xml version="1.0" encoding="UTF-8"?>
<svg id="Layer_2" data-name="Layer 2" xmlns="http://www.w3.org/2000/svg" viewBox="0 0 354.36 354.36">
  <defs>
    <style>
      .cls-1 {
        fill: #d8ab51;
      }

      .cls-2 {
        fill: #e2c188;
      }

      .cls-3 {
        fill: #c69439;
      }
    </style>
  </defs>
  <g id="Jupiter">
    <g id="Jupiter-2" data-name="Jupiter">
      <path class="cls-1" d="M354.22,184.13c-3.84,97.78-86.22,173.93-184,170.09C72.45,350.38-3.7,268.01.14,170.22,3.98,72.45,86.36-3.7,184.13.14c97.78,3.84,173.93,86.22,170.09,183.99Z"/>
      <path class="cls-3" d="M68.2,37.49c30.1,19.97,69.54,32.85,113.1,34.56,43.57,1.71,83.89-8.04,115.47-25.59C266.96,19.16,227.7,1.85,184.13.14c-43.57-1.71-84.07,12.47-115.93,37.36Z"/>
      <path class="cls-3" d="M171.57,178.39c-74.96-2.94-139.19-16.68-168.52-34.02-1.57,8.41-2.57,17.04-2.91,25.85-3.84,97.78,72.31,180.16,170.09,184,97.78,3.84,180.15-72.31,184-170.09.44-11.13-.18-22.06-1.73-32.7-23.82,18.77-96.06,30.3-180.93,26.97Z"/>
      <path class="cls-2" d="M107.15,294.95c-44.23-19.26-79.82-49.05-103.87-83.67,15.39,78.79,83.23,139.65,166.94,142.94,59.71,2.35,113.67-25.14,147.52-69.16-55.42,36.35-135.63,42.52-210.6,9.88Z"/>
      <path class="cls-2" d="M104.86,207.65c-6.1,15.35-25.44,22.08-43.19,15.03-17.76-7.05-27.22-25.22-21.12-40.57,6.1-15.35,25.44-22.08,43.2-15.03,17.76,7.05,27.22,25.22,21.12,40.56Z"/>
      <path class="cls-2" d="M168.86,220.12c.23,7.96-7.06,14.64-16.28,14.9-9.22.26-16.87-5.99-17.1-13.95-.23-7.96,7.06-14.64,16.28-14.9,9.22-.26,16.87,5.99,17.09,13.95Z"/>
      <path class="cls-2" d="M225.89,220.12c.23,7.96-7.06,14.64-16.28,14.9-9.22.26-16.87-5.99-17.1-13.95-.23-7.96,7.06-14.64,16.28-14.9,9.22-.26,16.87,5.99,17.09,13.95Z"/>
      <path class="cls-2" d="M38.6,66.77c-11.36,14.23-20.58,30.27-27.16,47.64,105.68,59.24,274.49,29.33,336.49,15.35-5.98-21.56-15.95-41.53-29.1-59.01-111.97,38.48-231.43,10.73-280.23-3.99Z"/>
    </g>
  </g>
</svg>