<?xml version="1.0" encoding="UTF-8"?>
<svg id="Layer_2" data-name="Layer 2" xmlns="http://www.w3.org/2000/svg" viewBox="0 0 261.51 347.11">
  <defs>
    <style>
      .cls-1 {
        fill: #d8ab51;
      }

      .cls-2 {
        fill: #904548;
      }

      .cls-3 {
        fill: #56727f;
      }

      .cls-4 {
        fill: #cadce4;
      }

      .cls-5 {
        opacity: .1;
      }
    </style>
  </defs>
  <g id="Rocket">
    <g id="Rocket-2" data-name="Rocket">
      <path class="cls-4" d="M204.51,168.62c-51.91,76.39-112.71,125.6-135.8,109.91-23.1-15.69.26-90.34,52.17-166.73C172.79,35.4,243.61-6.99,256.68,1.89c12.06,8.2-.26,90.34-52.17,166.73Z"/>
      <path class="cls-1" d="M244.8,90.59c17.23-46.34,19.78-83.34,11.89-88.7-8.55-5.81-41.81,10.32-78.33,43.56l66.44,45.14Z"/>
      <path class="cls-1" d="M165.36,57.89l72.73,49.42c1.68-3.9,3.25-7.75,4.73-11.55l-68.52-46.56c-2.97,2.79-5.95,5.68-8.94,8.69Z"/>
      <path class="cls-1" d="M187.49,164.02c-10.56,15.55-31.73,19.58-47.27,9.02-15.55-10.56-19.58-31.73-9.02-47.27,10.56-15.54,31.73-19.58,47.27-9.02,15.54,10.56,19.58,31.73,9.02,47.27Z"/>
      <path class="cls-3" d="M184.27,161.83c-9.36,13.77-28.1,17.35-41.87,7.99-13.77-9.36-17.35-28.1-7.99-41.87,9.35-13.77,28.1-17.35,41.87-7.99,13.77,9.36,17.34,28.1,7.99,41.87Z"/>
      <path class="cls-1" d="M69.62,209.12c-12.27,34.55-13.55,60.82-.91,69.41,12.65,8.59,36.6-2.27,64.2-26.41l-63.3-43.01Z"/>
      <polygon class="cls-4" points="60.8 242.61 51.7 275.89 77.84 293.66 105.43 272.93 60.8 242.61"/>
      <g>
        <polygon class="cls-3" points="119.04 321.66 116.3 264.27 130.42 253.73 133.16 311.13 119.04 321.66"/>
        <polygon class="cls-3" points="101.89 334.45 99.16 277.05 113.28 266.52 116.01 323.92 101.89 334.45"/>
        <polygon class="cls-3" points="84.92 347.11 82.18 289.72 96.3 279.19 99.03 336.58 84.92 347.11"/>
      </g>
      <g>
        <polygon class="cls-3" points="10.44 248.28 64.5 228.81 68.82 211.74 14.76 231.2 10.44 248.28"/>
        <polygon class="cls-3" points="5.19 269.01 59.26 249.55 63.58 232.48 9.51 251.94 5.19 269.01"/>
        <polygon class="cls-3" points="0 289.55 54.06 270.09 58.38 253.01 4.32 272.48 0 289.55"/>
      </g>
      <rect class="cls-2" x="66.76" y="269.84" width="14.73" height="1.46" transform="translate(-191.29 179.69) rotate(-55.78)"/>
      <rect class="cls-3" x="50.38" y="257.14" width="64.73" height="1.46" transform="translate(-177.08 181.49) rotate(-55.83)"/>
      <path class="cls-5" d="M257.45.37c-.2-.13-.41-.26-.63-.37L68.88,276.57c.2.15-3.56,6.54-3.56,6.54,0,0,6.62,4.29,13.28,9.02,50.92-38.68,69.04-43.19,126.67-125.03C255.48,95.81,269.51,8.56,257.45.37Z"/>
    </g>
  </g>
</svg>