<?xml version="1.0" encoding="UTF-8"?>
<svg id="Layer_2" data-name="Layer 2" xmlns="http://www.w3.org/2000/svg" viewBox="0 0 529.55 469.28">
  <defs>
    <style>
      .cls-1 {
        fill: #bac2c4;
      }

      .cls-2 {
        fill: #fff;
      }

      .cls-3 {
        opacity: .25;
      }

      .cls-3, .cls-4 {
        fill: #212120;
      }

      .cls-5 {
        fill: #765f4e;
      }

      .cls-6 {
        fill: #b28c67;
      }

      .cls-7 {
        fill: #725845;
      }

      .cls-8 {
        fill: none;
        stroke: #8e6e54;
        stroke-miterlimit: 10;
      }

      .cls-9 {
        fill: #8d8f90;
      }

      .cls-10 {
        fill: #e0d0bd;
      }

      .cls-11 {
        fill: #d8ab51;
      }

      .cls-12 {
        fill: #5d4b3d;
      }

      .cls-13 {
        fill: #fcfcfc;
      }

      .cls-14 {
        fill: #333436;
      }

      .cls-15 {
        fill: #100d0b;
      }

      .cls-16 {
        fill: #8e6e54;
      }

      .cls-17 {
        fill: #444d56;
      }
    </style>
  </defs>
  <g id="Layer_5" data-name="Layer 5">
    <g>
      <g>
        <path class="cls-16" d="M287.63,188.09c1.02,1.72.9,3.39.14,4.71,1.89,7.14-6.54,12.67-11.5,16.8-6.93,5.76-14.25,11.06-21.94,15.76-7.75,4.75-15.87,8.86-24.25,12.39-7.36,3.11-14.33,3.88-17.19-5.05-5.76-17.96-9.98-36.58-14.94-54.77-4.87-17.83-10-35.63-13.68-53.76-3.57-17.59-5.84-35.67-4.66-53.64.93-14.05,4.73-29.56,17.91-37.03,12.42-7.03,26.92-2.84,33.41,9.91,3.61,7.09,4.32,14.9,5.23,22.68,1.04,9,3.46,17.6,6.43,26.13,11.66,33.39,27,65.48,45.04,95.87Z"/>
        <path class="cls-8" d="M287.63,188.09c-18.04-30.39-33.38-62.48-45.04-95.87-2.97-8.53-5.39-17.13-6.43-26.13-.91-7.78-1.62-15.59-5.23-22.68-6.49-12.75-20.99-16.94-33.41-9.91-13.18,7.47-16.98,22.98-17.91,37.03-1.18,17.97,1.09,36.05,4.66,53.64,3.68,18.13,8.81,35.93,13.68,53.76,4.96,18.19,9.18,36.81,14.94,54.77,2.86,8.93,9.83,8.16,17.19,5.05,8.38-3.53,16.5-7.64,24.25-12.39,7.69-4.7,15.01-10,21.94-15.76,4.96-4.13,13.39-9.66,11.5-16.8.76-1.32.88-2.99-.14-4.71Z"/>
      </g>
      <path class="cls-7" d="M174.95,213.01c4.81,10.44,19.51,26.13,8.28,37.04-2.55,2.48-5.93,4.1-8.81,6.15-2.97,2.11-5.73,4.5-8.31,7.07-5.16,5.17-8.68,11.2-12.93,17.05-3.85,5.3-8.56,9.68-15.28,10.63-7.55,1.06-14.84-2.45-21.38-5.83-6.36-3.29-11.31-7.62-14.1-14.32-2.62-6.28-3.16-13.2-3.39-19.93-.56-16.08,1.4-32.38-1.06-48.36-1.21-7.83-3.77-14.88-7.25-21.95-3-6.08-5.86-12.5-5.27-19.43.53-6.2,3.08-11.75,6.98-16.04-.05-.89.16-1.84.76-2.81,7.95-12.9,24.87-14.48,37.38-7.55,13.91,7.72,22.43,23.06,28.46,37.19,5.77,13.51,9.77,27.74,15.92,41.09Z"/>
      <g>
        <path class="cls-6" d="M516.72,113.97c5.83,15.83.2,55.07-1.75,55.58-5.39,12.56-11.76,24.65-19.31,36.07-3.7,5.59-18.77,24.77-19.03,25.48-1.85,4.85-3.7,9.69-5.55,14.54.46,13.71,1.04,27.53.07,41.13-1.09,15.23-5.64,28.87-15.32,40.79-9.16,11.27-21.16,19.85-32.62,28.61-6.51,4.98-13.02,9.96-19.53,14.94-20.76,27.48-43.03,54.15-71.95,73.32-29.86,19.79-64.7,29.15-100.25,22.45-37.18-7.02-70.58-28.03-102.11-47.91-16.94-10.68-33.83-21.61-49.95-33.49-14-10.32-22.66-21.47-31.09-36.95-7.55-13.88-7.9-26.06-13.4-44.04-7.31-18.81-18.19-43.21-17.35-58.63.9-16.59,13.32-33.3,20.47-37.85,6.84-4.35,14.4-2.42,19.67,3.32,5.74,6.25,10.72,13.39,16,20.04,5.5,6.93,57.7,55.11,61.15,56.78,10.7-6.26,17.62-22.33,26.23-30.68,11.57-11.24,20.42-14.81,35.72-16.98,16.51-2.34,31.53-4.87,46.44-12.68,14.11-7.39,52.11-42.57,52.95-42.75-3.65-11.91-6.6-24.03-8.66-36.42-1.96-11.82-3.54-24.48-9.81-34.93-2.72-4.53-7.84-8.63-9.41-13.92-2.1-7.09,5.07-27.28,14.71-29.22,7.69-2.87,15.94-2.86,23.62.03,1.74.66,42.46,29.55,53.42,50.29,10.17-10.6,21.59-20.05,34.32-27.39,26.84-15.48,60.45-21.1,89.74-9.1,13.88,5.68,27.22,14.99,32.58,29.57ZM271.44,92.28c0-.41,0-.82-.02-1.24-.16.05-.33.08-.5.09.08.93.21,1.86.37,2.78.07-.54.13-1.08.15-1.63Z"/>
        <path class="cls-6" d="M271.42,91.04c.02.42.03.83.02,1.24-.02.55-.08,1.09-.15,1.63-.16-.92-.29-1.85-.37-2.78.17-.01.34-.04.5-.09Z"/>
      </g>
      <path class="cls-16" d="M413.01,221.81c-1.98-5.99-5.19-11.42-8.45-16.78-3.58-5.91-7.17-11.81-10.75-17.72-7.09-11.68-14.18-23.36-21.27-35.04-.9-1.49-1.8-2.97-2.7-4.46.22-.28.3-.66.06-1.06-4.55-7.57-7.69-15.87-9.31-24.56-.24-1.26-2.16-.73-1.93.53.78,4.19,1.93,8.29,3.4,12.27-.57-.94-1.14-1.88-1.71-2.82-.67-1.1-2.4-.09-1.73,1.01,14.18,23.36,28.36,46.72,42.54,70.08,3.72,6.12,7.66,12.22,9.92,19.07.4,1.22,2.33.7,1.93-.53Z"/>
      <path class="cls-16" d="M457.22,215.26c-4.89-.95-9.81-1.9-14.5-3.63-4.69-1.74-8.95-4.44-13.47-6.56-8.66-4.05-17.81-6.95-27.22-8.62-1.26-.22-1.8,1.7-.53,1.93,9.53,1.69,18.83,4.63,27.56,8.81,4.39,2.1,8.55,4.68,13.13,6.37,4.68,1.73,9.61,2.68,14.5,3.63,1.26.24,1.8-1.68.53-1.93Z"/>
      <g>
        <path class="cls-16" d="M388.23,333.49c1.24.35.71,2.27-.52,1.92-.14.8-.82,1.5-1.82,1.19-3.75-1.19-7.51-2.37-11.27-3.55-3.66-1.15-7.47-2.12-11.05-3.52-1.61-.62-2.81-1.53-4.04-2.72-.58-.56-1.15-1.08-1.94-1.31-.79-.22-1.62-.19-2.43-.27-1.56-.14-3.01-.51-4.15-1.65-.5-.51-.88-1.14-1.06-1.82-.96-.13-1.87-.58-2.61-1.22-1.34-1.16-1.92-2.85-2.39-4.51-.56-2.02-1.32-3.8-2.44-5.59-1.01-1.62-2.13-3.18-3.11-4.82-3.13-5.27-5.24-11.05-7.07-16.9-1.54-3.14-2.97-6.34-4.37-9.55-.99-2.26-1.96-4.53-2.91-6.8l.76-.32c.31.6.98.87,1.6.8,1.17,2.8,2.38,5.59,3.62,8.36.05.13.11.26.17.38.76-.5,4.54,8.15,5.85,11.77.74,1.3,1.51,2.58,2.32,3.84,11.24,17.46,28.91,30.56,48.86,36.29Z"/>
        <path class="cls-16" d="M328.65,271.42c.05.89-.56,1.36-1.24,1.43-.66-1.54-1.3-3.08-1.93-4.62l-.6-11.37c-.1-1.93,2.9-1.92,3,0l.77,14.56Z"/>
        <path class="cls-16" d="M327.41,272.85c-.62.07-1.29-.2-1.6-.8-.09-.18-.15-.39-.16-.63l-.17-3.19c.63,1.54,1.27,3.08,1.93,4.62Z"/>
        <path class="cls-16" d="M325.81,272.05l-.76.32c-1.53-3.63-3.02-7.28-4.47-10.94-4.79-12.05-9.17-24.25-13.15-36.59-1.98-6.14-3.8-12.33-5.65-18.52-1.77-5.92-3.73-11.8-6.87-17.15-.23-.38-.16-.74.04-1.01-.7-.02-1-.64-.91-1.18-1.1-.18-1.05-1.97.17-1.97.73,0,1.03.63.94,1.19.74.12.95.95.64,1.5.31-.01.64.11.85.46,3.38,5.76,5.44,12.12,7.32,18.49,2.02,6.83,4.07,13.64,6.29,20.4,3.99,12.16,8.37,24.2,13.15,36.07.69,1.71,1.38,3.41,2.08,5.11l.17,3.19c.01.24.07.45.16.63Z"/>
      </g>
      <path class="cls-16" d="M195.13,332.94c-.78-1.05-1.57-2.11-2.36-3.16-.07-.46-.21-1.04-.43-1.77-.11-.38-7.32-12.21-7.66-17.57-.35-5.65-.03-4.71-.68-4.21-4.95,3.76-9.56-.49-15.69.53-.65.11-3.96-.2-5.09.07-3.48-1.31-6.98-2.6-10.31-4.24-2.33-1.15-4.6-2.42-6.81-3.8-.07-.09-.15-.17-.24-.23-3.98-2.75-7.29-6.41-9.66-10.62-.63-1.12-2.36-.11-1.73,1.01,1.09,1.93,2.37,3.73,3.8,5.39-.32.43-.36,1.13.18,1.55,7.25,5.6,15.27,9.59,23.84,12.74,2.6.96,5.2,1.92,7.71,3.09.05.03.11.05.17.08,1.52.71,3.01,1.5,4.44,2.4,2.25,1.43,4.33,3.09,6.27,4.9,3.3,3.7,6.53,7.61,8.8,9.92,1.26,1.63,2.5,3.27,3.72,4.92.76,1.02,2.5.03,1.73-1.01Z"/>
      <path class="cls-16" d="M334.7,273.08c-.01-1.93-3.01-1.93-3,0,.03,4.08.06,8.17.09,12.25.01,1.93,3.01,1.93,3,0-.03-4.08-.06-8.17-.09-12.25Z"/>
      <path class="cls-16" d="M322.92,252.36c-.07-.78-.64-1.54-1.5-1.5-.76.03-1.57.66-1.5,1.5.26,3.06.51,6.13.77,9.19.07.78.64,1.54,1.5,1.5.76-.03,1.57-.66,1.5-1.5-.26-3.06-.51-6.13-.77-9.19Z"/>
      <path class="cls-16" d="M214.15,417.04c-12.16,2.78-24.43,5.08-36.77,6.89-1.9.28-1.09,3.17.8,2.89,12.34-1.82,24.61-4.12,36.77-6.89,1.88-.43,1.09-3.32-.8-2.89Z"/>
      <path class="cls-16" d="M187.34,413.21c-13.56,2.6-27.23,4.63-40.96,6.07-1.9.2-1.92,3.2,0,3,14-1.47,27.93-3.53,41.76-6.18,1.89-.36,1.09-3.25-.8-2.89Z"/>
      <path class="cls-16" d="M163.23,407.01c-13.23,1.58-26.51,2.62-39.83,3.12-1.92.07-1.93,3.07,0,3,13.31-.5,26.6-1.54,39.83-3.12,1.89-.23,1.92-3.23,0-3Z"/>
      <path class="cls-16" d="M258.67,233.73c-14.73,3.02-29.84,3.82-44.81,2.43-1.92-.18-1.91,2.82,0,3,15.24,1.41,30.62.53,45.61-2.54,1.89-.39,1.09-3.28-.8-2.89Z"/>
      <path class="cls-16" d="M217.26,241.06c-7.9.88-15.85.86-23.75-.05-1.91-.22-1.9,2.78,0,3,7.89.91,15.85.93,23.75.05,1.9-.21,1.92-3.21,0-3Z"/>
      <path class="cls-16" d="M194.39,251.07c-6.24-1.42-12.49-2.83-18.73-4.25-1.87-.42-2.78,2.44-.89,2.86,2.44.55,8.41,1.91,18.73,4.25,1.87.42,2.78-2.44.89-2.86Z"/>
      <path class="cls-11" d="M43.52,215.23c.79,1.1.18,2.79-.9,3.42-1.25.73-2.63.2-3.42-.89-3.91-5.4-8.26-10.78-14-14.31-4.42-2.72-9.65-4.17-14.72-3.37,4,.26,7.94,1.17,11.67,2.84,5.21,2.33,9.65,6.23,12.65,11.09,1.52,2.46,2.68,5.21,3.33,8.03.33,1.46.54,2.97.62,4.46.08,1.4.14,3.01-.63,4.24-1.81,2.86-6.04,2.01-8.88,1.95-2.58-.06-5.64.01-7.47-2.15-1.1-1.31-1.29-3.03-.71-4.61.2-.53.66-1.16.75-1.72.08-.49-.12-.91-.33-1.36-1.17-2.45-2.54-4.83-3.87-7.22-.77-.77-1.55-1.53-2.33-2.28-3.78-3.64-7.95-7.05-13.24-8.05-2.35-.45-2.42-4.44,0-4.82.81-.13,1.62-.23,2.44-.31-.24-.28-.42-.59-.51-.93-.39-1.39.48-2.59,1.74-3.07,1.39-.53,2.81-.89,4.25-1.1-.72-1.52-.02-3.72,2.13-3.59,10.76.63,21.02,5.1,28.76,12.62,2.13,2.07-.7,5.21-2.96,3.95,2,2.3,3.85,4.73,5.63,7.18Z"/>
      <path class="cls-11" d="M118.07,141.7c.79,1.1.18,2.79-.9,3.42-1.25.73-2.63.2-3.42-.89-3.91-5.4-8.26-10.78-14-14.31-4.42-2.72-9.65-4.17-14.72-3.37,4,.26,7.94,1.17,11.67,2.84,5.21,2.33,9.65,6.23,12.65,11.09,1.52,2.46,2.68,5.21,3.33,8.03.33,1.46.54,2.97.62,4.46.08,1.4.14,3.01-.63,4.24-1.81,2.86-6.04,2.01-8.88,1.95-2.58-.06-5.64.01-7.47-2.15-1.1-1.31-1.29-3.03-.71-4.61.2-.53.66-1.16.75-1.72.08-.49-.12-.91-.33-1.36-1.17-2.45-2.54-4.83-3.87-7.22-.77-.77-1.55-1.53-2.33-2.28-3.78-3.64-7.95-7.05-13.24-8.05-2.35-.45-2.42-4.44,0-4.82.81-.13,1.62-.23,2.44-.31-.24-.28-.42-.59-.51-.93-.39-1.39.48-2.59,1.74-3.07,1.39-.53,2.81-.89,4.25-1.1-.72-1.52-.02-3.72,2.13-3.59,10.76.63,21.02,5.1,28.76,12.62,2.13,2.07-.7,5.21-2.96,3.95,2,2.3,3.85,4.73,5.63,7.18Z"/>
      <path class="cls-11" d="M283.2,75.02c-2.45-5.65-4.88-11.3-7.35-16.94-2.13-4.86-4.73-10.14-9.91-12.46-1.22-.54-2.63-.32-3.3.89-.59,1.05-.22,2.73.99,3.28,4.39,1.97,6.31,6.7,8.09,10.79,1.61,3.71,3.22,7.42,4.83,11.13-2.52-3.26-5.03-6.52-7.56-9.77-3.36-4.31-7.29-8.9-13-9.8-1.34-.21-2.68.41-3.03,1.82-.31,1.23.49,2.82,1.82,3.03,4.84.75,7.96,4.99,10.78,8.62l5.09,6.57c-2-1.86-4.01-3.73-6.03-5.57-4.3-3.94-9.51-7.6-15.66-6.25-3.15.69-2.05,5.57,1.1,4.88,4.86-1.06,8.92,2.93,12.17,5.94,4.2,3.9,8.4,7.8,12.61,11.7.99.92,2.46,1.14,3.53.17.62-.57.92-1.52.77-2.38.22-.06.44-.14.65-.27.75-.45,1.26-1.44,1.22-2.35.19,0,.38-.03.57-.08,1.16-.31,2.16-1.74,1.64-2.94Z"/>
      <path class="cls-11" d="M208.03,34.64c.16-6.15.3-12.31.49-18.46.16-5.3.59-11.17,4.53-15.26.92-.96,2.32-1.28,3.4-.41.94.76,1.23,2.45.31,3.41-3.34,3.47-3.35,8.57-3.47,13.03-.11,4.04-.21,8.08-.32,12.13,1.12-3.96,2.23-7.93,3.36-11.89,1.51-5.25,3.43-10.98,8.4-13.95,1.16-.69,2.64-.62,3.49.56.74,1.02.6,2.8-.56,3.49-4.21,2.51-5.52,7.6-6.77,12.02l-2.26,8c1.16-2.48,2.33-4.96,3.51-7.42,2.52-5.26,5.98-10.6,12.19-11.65,3.17-.54,3.98,4.4.81,4.94-4.9.83-7.18,6.05-9.07,10.06-2.44,5.19-4.88,10.38-7.32,15.56-.58,1.23-1.85,1.98-3.21,1.48-.79-.29-1.42-1.07-1.6-1.92-.22.03-.46.04-.71,0-.86-.14-1.71-.86-2.01-1.73-.17.06-.36.11-.56.14-1.19.14-2.65-.81-2.62-2.12Z"/>
      <path class="cls-10" d="M512.02,147.33c.25,5.73-1.34,11.37-3.45,16.64-.98,2.46-1.97,5.05-3.51,7.23-1.42,2-3.32,3.51-5.32,4.9-4.55,3.18-8.71,6.6-12.74,10.43-7.5,7.13-15.42,15.05-25.9,17.35-5.6,1.23-11.32.48-16.77-1.07-5.4-1.53-10.78-3.57-15.87-5.93-4.79-2.23-9.58-5.19-12.42-9.78-1.38-2.23-2.32-4.72-3.28-7.15-1.04-2.62-1.99-5.28-2.22-8.1-.23-2.87.43-5.7,1.02-8.48.64-2.95,1.07-5.91,1.22-8.92.3-6.1-.35-12.2-1.39-18.2-.93-5.38-2.88-11.24-1.38-16.69.9-3.26,3.32-6.28,6.52-7.35,1.64-1.13,3.34-2.17,5.1-3.11,8.98-4.8,19.32-7.18,29.5-6.47,5.75.4,11.28,1.91,16.75,3.67,5.41,1.74,10.85,3.47,15.94,6.02,9.39,4.71,18.52,11.34,23.83,20.6,2.52,4.39,4.14,9.34,4.37,14.41Z"/>
      <path class="cls-16" d="M511.05,172.26c.46,2.42.72,4.56.05,6.96-.68,2.43-1.41,4.86-2.3,7.21-1.85,4.88-4.85,9.11-7.7,13.44-1.47,2.21-2.93,4.43-4.39,6.65-.88,1.33-1.99,4.01-4.04,3.35-1.86-.6-2.29-3.11-2.52-4.77-.3-2.19-.12-4.4.18-6.59.65-4.73,1.82-9.35.51-14.08-1.27-4.57-3.88-8.69-4.68-13.39-.76-4.51-.12-9.18,1.85-13.31.83-1.74,1.95-3.65,3.78-4.49,1.31-.6,2.87-.55,4.03.25,3.86-1.31,7.86,1.32,10.17,4.51,3.01,4.15,4.13,9.31,5.06,14.26Z"/>
      <path class="cls-16" d="M434.87,124.48c4.46,3.99,2.32,10.62-1.52,14.15-4.86,4.46-11.73,5.26-17.64,7.63-5.44,2.18-10.47,5.26-15.36,8.44-4.84,3.14-9.57,6.75-14.74,9.32-1.25.62-2.73,1.3-4.14,1.08-1.2-.19-1.89-1-2.55-1.95-1.9-2.72-3.72-5.52-5.57-8.27-1.24-1.84-2.96-3.82-2.5-6.03-3.23-6.15-6.83-12.1-10.8-17.8-.41-.58.05-1.25.6-1.47,4.61-1.8,9.23-3.6,13.9-5.25,8.28-2.93,16.69-5.2,25.37-6.58,4.25-.69,8.52-1.22,12.8-1.7,2.13-.24,4.28-.56,6.43-.68,1.64-.09,3.29.11,4.66,1.08.49.36.52.93.31,1.35h.11c4.81.11,7.93,3.02,10.48,6.59.05.03.11.04.16.09Z"/>
      <path class="cls-5" d="M487.18,153.97c-.69.72-1.38,1.43-2.08,2.15,1.06,1.39-.99,2.29-.57,3.58,1.52-1.27,3.25-.48,4.9-.5,5.25,1.06,8.28,5.13,11.67,8.67,1.24,1.3.95,2.8-.18,4.03-2.9,3.15-6.29,4.97-10.64,3.15-4.17-1.75-7.01-4.41-5.76-9.49-.38-.51-.75-1.02-1.13-1.53-.4,0-.8,0-1.2.01-1.07,2.14-.13,4.31-.08,6.46,6.4,8.56,10.62,10.32,18.16,6.27,7.93-4.26,9.93-10.03,6.69-17.04-3.22-6.96-10.99-9.38-17.93-5.87-.66.33-1.21.43-1.85.1Z"/>
      <path class="cls-5" d="M435.73,134.49c1.19-1.81.57-3.95,1.07-5.89-2.3-4.24-3.41-9.22-8.44-11.61-11.03-5.26-19.42-.32-20.72,12.39,1.19-1.88,3.12-2.52,5.12-3.03,7.73-1.37,13.54,2.42,19.03,7.07,1.15-.15,1.71.7,2.37,1.39.52-.1,1.05-.21,1.57-.31Z"/>
      <path class="cls-12" d="M434.16,134.81c-.65-.7-1.22-1.54-2.37-1.39-.72,1.29-1.54,2.54-2.16,3.88-2.06,4.44-5.98,4.78-10.05,4.48-3.83-.28-6.34-2.34-7.04-6.28-2.28-.25-4.24-.98-5.04-3.41-.63,7.57,5.59,13.89,13.39,13.67,1.45-.04,2.87-.94,4.35-.22.24-.14.5-.26.77-.34.45-.81.99-1.45,2.06-1,1.45-1.38,2.91-2.77,4.36-4.15-.33-2.04,1.27-3.45,1.73-5.24Z"/>
      <path class="cls-13" d="M407.5,132.08c.81,2.43,2.76,3.16,5.04,3.41,4.92-2.94,4.97-5.07.22-9.15-2,.51-3.93,1.15-5.12,3.03-.05.9-.1,1.8-.14,2.7Z"/>
      <path class="cls-16" d="M435.34,148.53c-5.95,5.68-6.29,14.15-.42,20.82,5.97,6.79,13.62,11,22.54,12.5,7.88,1.32,14.47-3.09,16.51-10.55-5.26,3.02-10.4,2.63-15.58-.31-2.6-1.47-5.42-2.52-8.08-3.88-7.74-3.97-14.59-8.68-14.96-18.59Z"/>
      <path class="cls-6" d="M475.25,164.73c3.65-9.92,2.69-19.55-2.9-28.34-3.57-5.62-9.89-6.82-16.32-4.18-6.85,2.82-12.67,7.07-17.37,12.83.23.2.47.39.72.57,2.35.38,4.7.77,7.05,1.15,5.59-4.76,14.04-5.25,20.64-1.2,5.47,3.35,7.5,9.25,5.64,16.33.85.95,1.7,1.9,2.54,2.84Z"/>
      <path class="cls-15" d="M474.69,165.45c-6.08,5.83-7.1,6.09-14.82,2.62-4.06-1.82-7.92-4.06-11.93-5.99-6.99-3.37-9.88-8.82-8.57-16.48-.25-.18-.49-.37-.72-.57-2.34,0-2.45,2.1-3.31,3.5.37,9.91,7.22,14.62,14.96,18.59,2.66,1.36,5.49,2.41,8.08,3.88,5.19,2.93,10.33,3.32,15.58.31,1.52-1.79,3.07-3.58.72-5.85Z"/>
      <path class="cls-15" d="M484.52,165.56c-1.25,5.08,1.58,7.74,5.76,9.49,4.35,1.82,7.73,0,10.64-3.15,1.14-1.23,1.43-2.74.18-4.03-3.4-3.54-6.43-7.61-11.67-8.67,1.71,1.75,2.32,3.87.85,5.84-1.52,2.04-3.69,1.89-5.75.53Z"/>
      <path class="cls-13" d="M484.52,165.56c2.06,1.37,4.24,1.51,5.75-.53,1.47-1.97.86-4.09-.85-5.84-1.65.02-3.38-.77-4.9.5-.42.94-.84,1.88-1.26,2.82.04.5.08,1.01.13,1.51.38.51.75,1.02,1.13,1.53Z"/>
      <path class="cls-15" d="M412.76,126.34c4.75,4.08,4.7,6.2-.22,9.15.7,3.94,3.21,6,7.04,6.28,4.07.3,7.99-.04,10.05-4.48.62-1.34,1.43-2.59,2.16-3.88-5.49-4.65-11.3-8.45-19.03-7.07Z"/>
      <path class="cls-12" d="M446.43,146.75c-1.06,3.15-1.17,6.11,1.79,8.41.74-1.62,1.05-3.73,3.55-3.46,1.08.12,1.82.89,1.96,1.97.34,2.55-1.84,2.79-3.4,3.58,3.43,5.7,8.69,7.79,15.08,7.65-.91-1.68-2.32-3.34-.46-5.23.95-.97,2.12-.73,3.15-.18,2.1,1.12.98,2.73.52,4.21,2.11,1.09,2.83-.96,4.08-1.81,1.87-7.08-.17-12.98-5.64-16.33-6.6-4.05-15.04-3.56-20.64,1.2Z"/>
      <path class="cls-15" d="M468.62,163.7c.47-1.49,1.58-3.09-.52-4.21-1.03-.55-2.19-.79-3.15.18-1.86,1.9-.45,3.55.46,5.23,1.32.26,2.17-.71,3.21-1.2Z"/>
      <path class="cls-15" d="M450.33,157.25c1.56-.79,3.75-1.03,3.4-3.58-.15-1.09-.88-1.86-1.96-1.97-2.51-.27-2.81,1.84-3.55,3.46.7.7,1.41,1.4,2.11,2.09Z"/>
      <g>
        <path class="cls-1" d="M385.35,72.26c.66-.93,1.11-2.08,2.65-2.63-2.8,3.08.43,3.57,1.14.23.79-1.06.97.91,2.74-1.36,3.17-3.31,5.92-8.68,10.62-10,16.5-7.4,36.48-7.41,54.5-7.18,17.61-3.15,32.22,7.08,46.42,15.97-3.6,2.92.5,7.07,2.24,9.77-29.16-16.61-63.42-6.76-90.86,10.14,4.92,56.43-16.84,56.89,23.06,104.09,7.8,9.17,16.2,17.52,25.39,23.75-8.73-.87-15.03-12.01-22.18-16.02,3.7,4.72,8.31,8.42,12.7,12.51-4.27.27-6.96-5.1-10.53-7.29-9.88-5.71-16.66-17.44-23.79-26.52-26.16-30.61,2.21-59.78-15.37-89.23,14.11,42.17-14.89,60.42,23.22,102.42,5.13,8.83,16.88,14.73,19.9,23.9-2.5,1.73-7.44-4.04-9.04-6.17-3.96-3.01-8.49-5.88-12.86-8-1.72-1.24-10.73-13.17-9.9-9.48,1.12,1.97,12.18,11.73,8.1,10.44,0-2.42-3.72-.97-3.25-3.34.16-.55-.3-.97-.69-1.03-4.72-1.6.05,1.51-2,3.04-2.37,2.27-6.52.78-8.23,3.61-1-5.11-1.11-9.71-1.98-15.29-.24-1.23-1.08-2.04-.73-3.57.28-1.36-1.6-6.08,1.46-3.26.25-1.09-1.96-1.57-2.05-2.9.14-6.47-4.87-11.56-8.09-16.82-23.14-30.33-6.16-21.78-7.09-51.59-.22-9.88-10.75-13.6-17.72-8.94-1.72-9.84,15.77-10.22,19.59-2.41-2.59-8.81-13.55-7.5-19.59-3-2.1-3.12.73-7.48,3.86-7.71,6.71-4.24,13.25-11.82,16.93-17.84-6.15,1.54-7.21,8.16-11.35,11,1.27-2.86,3.16-6.01,2.76-9.28ZM443.64,55.42c1.27.06,1.6,1.42,2.53,1.52,1.82-.99,5.59.31,6.15-2.2-6.23-2.7-21.17-2.27-25.71,2.54.96,1.09,2.57,0,3.66,1.07,1.36-.13,1.95-1.6,3.04.13,1.37,1.9,6.06.84,8,.69.91-2.18,3.29-1.08,2.33-3.74Z"/>
        <path class="cls-9" d="M406.71,187.39c1.79,2.48.49,7.15,2.06,10.06.84.71-1.06,1.32-.03,2.03.53,1.38-.62,2.86.59,4.39,1.71-2.82,5.86-1.34,8.23-3.61,2.05-1.54-2.72-4.64,2-3.04.39.06.85.48.69,1.03-.48,2.36,3.24.93,3.25,3.34,4.09,1.35-6.97-8.51-8.1-10.44-.84-3.68,8.18,8.2,9.9,9.48,4.37,2.12,8.9,5,12.86,8,1.65,2.19,6.49,7.85,9.04,6.18-1.11-7.04-10.5-11.04-14.31-17.19-46.39-49.86-14.13-60.39-28.8-109.13,17.56,29.37-10.77,58.68,15.37,89.23,7.12,9.09,13.91,20.81,23.79,26.52,3.58,2.22,6.24,7.53,10.53,7.29-2.7-3.11-13.44-10.85-11.61-12.19,7.71,8.38,17.21,15.34,26.23,18.8,10.74,5.68,29.47,11.38,38.88,1.87.06,5.5,1.93,13.01-5,15.57-9.04,6.29-26.48-2.73-32.95.86-22.05,5.98-19.08,1.08-37.62-10.38-1.52-1.56.08-2.3,1.69-1.67,2.43,1.03,8.22-3.54,5.54-5.79-4.93-3.9-11.18-10.76-15.54-13.08,4.21,5.55,11.1,9.55,15.05,14.66-5.58-.29-9.49-8.43-14.46-11.91-14.81-17.03,2.58,9.37,8.81,12.57-3.35,6.76-8.33-1.8-11.71-3.85-11.01-7.69-15.66-16.69-14.37-29.61ZM420.75,202.54c0,.38.48,1.24.84.68-.73-.65-.87-1.44-1.74-1.97-.91.2.32,1.36.9,1.29Z"/>
        <path class="cls-17" d="M372.88,97.45c-.23,6.26.5,3.4,4.21,2.82.19,1.31.17,1.25,1.26.92,10.48-3.05,11.73,11.43,10.07,18.89.03,4.74-3.97,8.74-4.08,12.97.62.95.18,2.14-.46,2.78-.75,1.28-3.03,4.81.36,3.81,7.9,16.49,24.31,29.22,20.33,48-1.07,4.08,2.24,9.38.4,12.68-.71-1.92-1.81-5.65-4.8-3.64-4.55-2.85-6.9-12.59-10.64-17.75-3.59-12.05,4.18-3.28,8.59-.91,2.73-2.19-.5-3.86-2.77-3.57-13.65-3.63-4.03-15.84-9.3-16.03-3.26,1.02-6.78-7.79-7.55-2.17,0,.66,1.29,2.08-.09,1.98-2.29-4.26-4.82-8.68-6.97-13.11,11.92-3.69,12.24-9.49-.56-1-26.54-38.79-8.41-38.13,12.71-69.12,5.78,6.7-15.49,13.74-10.72,22.46ZM375.94,119.98c1.08-11.54-11.57-.15-7.4,6.23,3.35,4.6,8.02-2.61,7.4-6.23ZM370.84,129.7c4.8,2.09,9.49-6.96,7.59-10.82-1.7,4.44-2,9.27-7.59,10.82ZM404.68,174.85c-.85.05.25,1.29.43.53.02-.32-.18-.48-.43-.53Z"/>
        <path class="cls-14" d="M399.43,197.07c3.44-2.52,4.71.61,5.56,3.24,1.06-5.93-1.31-13.98-.41-20.73,1.23-9.56,2.09,8.12,2.04,10.93.24,4.46.82,9.94,1.71,14.1-.69,2.49-1.63,3.6,1.07,4.97,1.27.91,7.48,8.06,6.55,5.49-.27-.85-2.18-2.74-.56-3,14.94,11.75,30.63,32.38,51.45,29.34-.86,1.55-3.59,2.19-5.38,1.86-2.23-.63-3.42,1.76-5.59,1.19-1.64.59-4.29-1.37-5.2.34-16.27-8.41-33.87-16.82-43.7-32.95,0,0,.03.07.03.07-.39-.36-.56-.96-1.01-1.18,0-.23-.18-.26-.34-.34,0-.23-.18-.26-.34-.34-.01-.23-.17-.27-.35-.33-2.17-2.27-1.8-6.69-3.75-9.33-.44-1.09-1.35-2.15-1.76-3.33Z"/>
        <path class="cls-4" d="M450.66,244.82c1.83-1.95,6.03,1.21,8.38-1.15,2.23-.97,5.31.25,7.55-1.63.5-2.06,4.1-.26,4.57-1.51-.29-3.38,14.51,1.21,18.56-.48,23.63-3.68-16.48,11.69-23.98,8.87-5.19-.93-10.37-2.16-15.08-4.09Z"/>
        <path class="cls-17" d="M498.07,238.65c-8.25,2.1-17.11,2.21-25.47.38-1.98-.39-1.32.55-1.57,2.02-3.65-1.13-7.99,2.47-11.14.72-2.82-.92-7.38-.1-9.29-3,7.11,3,12.47-3.11,19.05-2.36.77-3.46,10.32,1.24,14.3.81,4.54,1.97,24.23-2.85,14.11,1.43Z"/>
        <path class="cls-17" d="M514.03,88.51c13.8,21.37,17.98,48.16,14.19,73.09-.27-27.57.3-59.93-22.23-80.99-1.8-2.76,10.39,2.62,8.04,7.9Z"/>
        <path class="cls-14" d="M527.35,158.87c2.79,11.32-14.64,66.33-28.92,65.55,2.11-1.24,4.86-1.43,5.26-4.6,3.08-3.6,5.73-7.49,6.72-11.58,10.25-10.68,14.82-33.09,16.95-49.38Z"/>
        <path class="cls-9" d="M378.43,158.23c1.38.05.1-1.32.09-1.99.76-5.62,4.29,3.2,7.55,2.17,4.81-.61-3.08,12.43,7.29,15.08,1.93,1.37,8.42.88,4.79,4.52-3.78-1.49-11.4-11.25-9.06-.19-1.83-1.43-.36-6.74-3.4-6.22l-.7-1.37c3.47.44,1.58-2.77,1.67-4.78-.07-5.41-1.39-2.82-4.13-.37-1.33-.53,2.21-2.78,2.55-3.99,1.21-2.4-6.29-6.17-5.67-1.47-.52-.33-.88-.77-.97-1.4ZM398.21,176.44c-.06-.39-.16-.8-.61-.84-1.18.22.18,2.28.61.84ZM388.03,171.73c.51-.24.44-1.36-.21-1.33-.64.13-.47,1.33.21,1.33Z"/>
        <path class="cls-9" d="M513.92,84.28c-6.78-4.58-13.5-8.09-20.77-12.14,7.35,1.84,17.06,5.82,20.77,12.14Z"/>
        <path class="cls-17" d="M379.4,159.63c.12-4.21,3.18-1.66,5.3-.36,1.39,4.28-4.2,7.42-5.3.36Z"/>
        <path class="cls-17" d="M382.52,165.09c2.74-2.46,4.06-5.04,4.13.37,1.97,7.13-3.49,4.71-4.13-.37Z"/>
        <path class="cls-14" d="M370.89,144.11c2.24-1.62,5.8-2.21,7.91-4.6,5.32-.8-6.93,8.46-7.91,4.6Z"/>
        <path class="cls-1" d="M513.49,82.63c-4.24-2.03-.18-1.53-.84-7.01,1.16,2.12.39,4.69.84,7.01Z"/>
        <path class="cls-17" d="M526.14,174.33c.27-2.72.51-6.36,1.55-8.94-.17,3.04-.61,6.03-1.55,8.94Z"/>
        <path class="cls-17" d="M385.68,171.61c1.93-.73,2.29,2.76,2.39,4.16-1.1-1.21-1.65-2.74-2.39-4.16Z"/>
        <path class="cls-17" d="M523.85,183.24c.31-2.36,1.01-4.61,1.77-6.85-.27,2.36-.81,4.66-1.77,6.85Z"/>
        <path class="cls-9" d="M384.87,75.36c-1.59-.9-.54-2.12.48-3.09.27.87.06,2.23-.48,3.09Z"/>
        <path class="cls-17" d="M521.86,189.23c.2-1.01.31-2.06,1.05-2.87-.09,1.05-.31,2.06-1.05,2.87Z"/>
        <path class="cls-17" d="M527.84,164.69c-.27-.83-.53-1.66.21-2.4,0,.81.17,1.63-.21,2.4Z"/>
        <path class="cls-9" d="M514.03,88.51c-.35-.7-.28-1.13.36-2.25.31.82-.15,1.52-.36,2.25Z"/>
        <path class="cls-9" d="M514.4,85.41c-.51-.23-.55-.66-.48-1.13.73.13.64.62.48,1.13Z"/>
        <path class="cls-1" d="M502.18,236.56c-.25-.3-.44-.85.09-.98q.75.7-.09.98Z"/>
        <path class="cls-17" d="M462.09,248.22c.58-.05,1.17-.18,1.64.31-.58.06-1.1-.16-1.64-.31Z"/>
        <path class="cls-9" d="M383.6,74.99c.12.48-.09.71-.56.77-.04-.42.11-.7.56-.77Z"/>
        <path class="cls-1" d="M509.17,79.38c-.47.13-.72-.08-.82-.53.47-.13.73.07.82.53Z"/>
        <path class="cls-17" d="M525.81,175.7c-.36-.31-.21-.52.14-.69.1.26.06.49-.14.69Z"/>
        <path class="cls-17" d="M523.48,184.5c-.01-.32-.03-.65.29-.86.09.35-.02.63-.29.86Z"/>
        <path class="cls-17" d="M460.31,247.9c.38-.08.74-.1,1.02.26-.39.13-.7-.09-1.02-.26Z"/>
        <path class="cls-17" d="M401.57,201.15c.28.14.33.38.29.67-.14-.2-.32-.39-.29-.67Z"/>
        <path class="cls-17" d="M401.22,200.47c.27.12.34.33.32.6-.2-.15-.36-.32-.32-.6Z"/>
        <path class="cls-17" d="M404.4,209.39c.26-.01.46.07.54.35-.25,0-.39-.18-.54-.35Z"/>
        <path class="cls-17" d="M400.86,199.78c.27.12.35.34.33.62-.21-.15-.37-.33-.33-.62Z"/>
        <path class="cls-14" d="M451.41,245.16c.25-.03.48.01.61.26-.27.06-.46-.06-.61-.26Z"/>
        <path class="cls-17" d="M521.44,190.43c-.03-.25.03-.47.27-.6.07.27-.06.46-.27.6Z"/>
        <path class="cls-14" d="M453.47,245.84c.25-.03.47,0,.61.24-.26.06-.44-.06-.61-.24Z"/>
        <path class="cls-14" d="M454.52,246.18c.24-.02.46.02.59.25-.26.06-.42-.09-.59-.25Z"/>
        <path class="cls-17" d="M455.47,246.54c.28-.07.53-.05.7.23-.29.09-.51-.03-.7-.23Z"/>
        <path class="cls-14" d="M452.42,245.51c.25-.03.48,0,.63.24-.26.06-.47-.05-.63-.24Z"/>
        <path class="cls-17" d="M399.56,197.38c.17.06.24.18.22.36-.17-.06-.26-.16-.22-.36Z"/>
        <path class="cls-17" d="M400.7,199.47c.11.05.16.13.13.26-.14-.04-.2-.11-.13-.26Z"/>
        <polygon class="cls-17" points="521.09 191.43 521.12 191.3 521.19 191.37 521.09 191.43"/>
        <path class="cls-17" d="M403.35,205.97c.17.06.24.17.21.35-.07-.12-.14-.24-.21-.35Z"/>
        <path class="cls-17" d="M406.99,211.94s-.03-.07-.03-.07c0,0,.03.07.03.07Z"/>
        <path class="cls-17" d="M404.96,209.76c.19.02.3.12.32.31-.2,0-.3-.11-.32-.31Z"/>
        <path class="cls-17" d="M405.32,210.1c.19.02.29.12.31.31-.2,0-.3-.11-.31-.31Z"/>
        <path class="cls-17" d="M405.66,210.44c.19.02.29.12.31.31-.2,0-.3-.11-.31-.31Z"/>
        <path class="cls-17" d="M497.84,239.81c-.1-.2-.08-.37.12-.49.08.19.06.36-.12.49Z"/>
        <path class="cls-9" d="M378.18,157.82c.19.07.27.2.25.4-.18-.08-.27-.2-.25-.4Z"/>
        <path class="cls-17" d="M406.01,210.79c.19.02.29.13.31.32-.2-.01-.31-.12-.31-.32Z"/>
        <path class="cls-3" d="M527.35,158.87c-1.92,23.71-11.57,44.56-24.1,62.03-2.19,5.14-10.45,3.45-14.45,3.34-28.72-2.22-46.59-27.88-62.19-47.54-10.63-15.33-16.72-33.9-10.29-52.86,7.73-4.72-3.82-26.72-2.09-33.92,23.98-19.04,60.24-27.58,88-12.25,24.03,17.92,27.45,53.17,25.12,81.19ZM505.8,136.71c3.08-1.75,12-5.97,13.08-8.89-4.26,1.84-10.02,5.13-13.08,8.89Z"/>
        <path class="cls-17" d="M417.32,111.29c-1.8,20.27-8.1,40.7,5.07,58.69-14.71-17.28-7.39-38.49-6.12-58.6,1.78-8.05-4.85-15.94-2.3-23.35,26.55-16.96,65.09-30.24,91.42-8.27-2.44-.22-5.56-4.27-7.66-2.66-24.81-16.65-57.43-3.54-81.16,10.25-6.68,5.02,2.41,17.06.75,23.94Z"/>
        <path class="cls-14" d="M384.26,139.63c-3.4.99-1.11-2.51-.36-3.81.64-.64,1.07-1.83.46-2.78-.36-2.78,2.41-5.62,3.12-8.49,2.54-8.1,3.34-26.37-9.11-23.37-4.76-1.72,8.73-2.38,9.35,1.23,8.01,11.64.74,26.16-3.46,37.21Z"/>
        <path class="cls-2" d="M443.64,55.42c.95,2.66-1.42,1.56-2.34,3.74-1.94.15-6.61,1.21-8-.68-1.08-1.72-1.69-.25-3.04-.13-1.08-1.07-2.69.02-3.65-1.07,4.55-4.82,19.47-5.25,25.71-2.55-.55,2.51-4.34,1.22-6.15,2.21-.93-.1-1.27-1.46-2.53-1.52Z"/>
        <path class="cls-2" d="M375.99,88.33c7.18-5.25,9.91-14.06,17.95-17.78h-.01c-4.45,6.41-10.67,15.43-17.93,17.78Z"/>
        <path class="cls-3" d="M424.18,172.29c3.66.51,7.91,2.64,10.26,4-1.71.69-.16,1.58.96.93-.11,2.11-4.78,1.91-6.49,1.61-2.14-1.75-2.89-4.3-4.73-6.54Z"/>
        <path class="cls-9" d="M372.88,97.45c-.95-1.02-.43-3.95.26-1.36,6.03-4.5,17-5.8,19.59,3-4.79-7.25-13.64-6.74-19.85-1.65Z"/>
        <path class="cls-17" d="M424.18,172.29c.82,1.54,2.54,2.8,2.66,4.59-1.78-1.93-3.38-4.24-4.31-6.66.92.4,1.17,1.33,1.65,2.07Z"/>
        <path class="cls-17" d="M427,177.11c1.12.47,2.18,1.94,2.28,3.17-1.02-.87-1.78-1.93-2.28-3.17Z"/>
        <path class="cls-9" d="M379.54,99.65c-1.09,0-2.09.81-3.14.46.73-1.01,2.31-1.24,3.14-.46Z"/>
        <path class="cls-17" d="M406.03,178.86c-.68-.5-.48-1.11-.19-1.72.43.53.31,1.13.19,1.72Z"/>
        <path class="cls-17" d="M406.52,186.77c-.52-.49-.59-1.02-.23-1.76.63-.05.36,1.26.23,1.76Z"/>
        <path class="cls-9" d="M406.25,180.87c-.81-1.05,1.21-1.39,1.08.03l.02-.02c-.36,0-.73,0-1.09-.01Z"/>
        <path class="cls-17" d="M434.19,186.73c.67.1,1.02.44.9,1.16-.46-.26-.83-.59-.9-1.16Z"/>
        <path class="cls-17" d="M435.24,188.09c.64.09.97.44.94,1.1-.55-.17-.82-.57-.94-1.1Z"/>
        <path class="cls-9" d="M407.33,180.9c.4.05,1.27.38.75.87-.51.25-.65-.6-.75-.87Z"/>
        <path class="cls-17" d="M429.47,180.5c.61.16.91.53.83,1.17-.53-.21-.82-.59-.83-1.17Z"/>
        <path class="cls-17" d="M431.48,183.27c.62.14.97.48.88,1.16-.51-.22-.83-.59-.88-1.16Z"/>
        <path class="cls-17" d="M406.36,179.83c-.12.25-.25.5-.37.75-.82-.43.02-1.55.37-.75Z"/>
        <path class="cls-9" d="M450.71,204.86c.47.08.86.26.89.82-.5-.05-.82-.3-.89-.82Z"/>
        <path class="cls-9" d="M491.64,71.75c-.46.23-.71.02-.87-.39.43-.17.72-.04.87.39Z"/>
        <path class="cls-9" d="M482.97,69.55c-.42.42-.62.13-.81-.24.34-.15.62-.11.81.24Z"/>
        <path class="cls-9" d="M374.38,101.18c-.1.44-.36.62-.81.49.12-.42.38-.59.81-.49Z"/>
        <path class="cls-17" d="M432.82,185c.47.04.64.32.59.76-.39-.1-.59-.36-.59-.76Z"/>
        <path class="cls-9" d="M406.62,185.02c-.57.12-.18-.42-.14-.76.46.18.64.4.14.76Z"/>
        <path class="cls-9" d="M479.19,68.86c-.38.43-.61.14-.83-.17.33-.19.62-.19.83.17Z"/>
        <path class="cls-9" d="M456.11,209.53c.42-.02.65.19.7.6-.43.03-.67-.17-.7-.6Z"/>
        <path class="cls-17" d="M437.29,190.5c.49.05.66.33.59.79-.39-.12-.56-.41-.59-.79Z"/>
        <path class="cls-9" d="M454.06,207.78c.45-.03.61.26.67.64-.44.02-.66-.21-.67-.64Z"/>
        <path class="cls-17" d="M430.43,181.9c.46.05.63.32.59.76-.38-.11-.62-.34-.59-.76Z"/>
        <path class="cls-9" d="M458.17,211.26c.45-.06.65.17.7.59-.44.04-.67-.15-.7-.59Z"/>
        <path class="cls-9" d="M461.68,213.85c.31-.01.53.09.58.43-.32.02-.51-.12-.58-.43Z"/>
        <path class="cls-9" d="M462.68,214.58c.23-.02.38.06.41.3-.22.01-.35-.1-.41-.3Z"/>
        <path class="cls-9" d="M444.85,199.05c.22.01.35.13.37.36-.22-.02-.34-.14-.37-.36Z"/>
        <path class="cls-9" d="M445.88,200.09c.22.02.35.14.35.37-.22-.02-.33-.15-.35-.37Z"/>
        <path class="cls-9" d="M457.2,210.44c.24,0,.39.09.34.36-.19-.04-.31-.16-.34-.36Z"/>
        <path class="cls-2" d="M393.94,70.54s.05-.14.07-.13c.17.04-.02.06-.07.13Z"/>
        <path class="cls-9" d="M459.27,212.13c.23-.02.37.08.42.31-.24.03-.37-.09-.42-.31Z"/>
        <path class="cls-9" d="M460.68,213.12c.22,0,.36.12.4.34-.26.04-.39-.08-.4-.34Z"/>
        <path class="cls-1" d="M432.79,220.86c-4.91-5.23-14.04-12.07-14.58-18.83,3.94,3.08,7.37,7.77,10.87,11.62,1.63,2.31,9.59,5.32,3.71,7.21Z"/>
        <path class="cls-17" d="M431.4,225.92c-1.02-.44-2.59-1.78-3.12-2.68,1.23.8,2.03.31,3.1-.44.39,1.07,2.35.95,3.08.42,3.05-1.7.68-3.13,3.98-3.03-1.78-3.58-16.11-13.05-14.15-14.53,4.79,5.25,25.78,17.89,7.75,18.52-1.36-.16-.92.75-.64,1.73Z"/>
        <path class="cls-17" d="M415.37,212.08c-2.31.32,2.25,3.78.35,3.96-2.12-4.52-10.31-6.09-7.41-11.42,2.1,2.73,5.08,4.65,7.06,7.46Z"/>
        <path class="cls-17" d="M449.6,238.31c-6.47-2.81-12.97-7.33-17.89-12.25,5.86,3.78,12.32,8.2,17.89,12.25Z"/>
        <path class="cls-14" d="M436.53,220.19c0,2.42-2.7,3.96-4.83,3.16-.68-1.89,2.9-4.07,4.83-3.16Z"/>
        <path class="cls-1" d="M464.42,215.87c.56.37,1.16.66,1.75,1.07-1.27.58-1.52.42-1.75-1.07Z"/>
        <path class="cls-17" d="M420.75,202.54c-2.37-.48-.29-2.42-.02.02l.02-.02Z"/>
        <path class="cls-17" d="M407.83,201.56c-.66-.38-.63-.87-.21-1.41.47.41.37.91.21,1.41Z"/>
        <path class="cls-17" d="M420.74,202.55c.39,0,1.22.52.66.85-.52-.04-.53-.56-.66-.85Z"/>
        <path class="cls-17" d="M422.8,218.71c-.63-.01-.96-.36-1.06-.96.66-.02.96.36,1.06.96Z"/>
        <path class="cls-17" d="M424.87,220.42c-.61,0-.94-.33-1.07-.9.71-.13.96.3,1.07.9Z"/>
        <path class="cls-17" d="M406.66,191.21c-.35-.21-.39-.43-.05-.69.35.21.35.43.05.69Z"/>
        <path class="cls-17" d="M408.16,203.63c-.38-.17-.61-.38-.16-.74.28.2.3.45.16.74Z"/>
        <path class="cls-17" d="M426.91,222.16c-.41,0-.65-.2-.69-.61.45-.05.66.18.69.61Z"/>
        <path class="cls-17" d="M407.01,194.99c-.36-.22-.35-.53-.19-.87.3.24.64.46.19.87Z"/>
        <path class="cls-14" d="M488.8,224.24c.29-.48.52-.38.72.07-.26.17-.5.18-.72-.07Z"/>
        <path class="cls-9" d="M375.94,119.98c.32,2.76-1.06,4.88-2.81,6.71-10.43,5.9-2.72-19.91,2.98-9.19-.41.11-.81.21-.96-.28-.5-2.36-4.03-1.94-4.17.26,1.95-.43,4.1.02,4.42,2.42-.72-.04-.78.56-.95,1.05.83-2.58-3.16-5-2.9-1.3h0c-.81.09-1.24-.53-1.75-1.16-4.1,10.54,4.24,10.82,6.13,1.47Z"/>
        <path class="cls-14" d="M370.84,129.7c5.59-1.55,5.88-6.39,7.59-10.82,1.9,3.85-2.79,12.92-7.59,10.82Z"/>
        <path class="cls-1" d="M375.94,119.98c-1.14.12-1.16-2.65.18-2.47.97.9.18,1.67-.18,2.47Z"/>
        <path class="cls-14" d="M404.68,174.85c.25.05.45.21.43.53-.18.76-1.28-.48-.43-.53Z"/>
        <path class="cls-14" d="M527.35,158.24c.03-.7-.27-1.45.25-2.09.58,1.06.53,1.44-.25,2.09Z"/>
        <path class="cls-17" d="M398.21,176.44c-.43,1.44-1.79-.62-.61-.84.45.04.56.46.61.84Z"/>
        <path class="cls-17" d="M388.03,171.73c-.69,0-.85-1.2-.21-1.33.65-.03.72,1.09.21,1.33Z"/>
        <path class="cls-2" d="M443.29,104.9c3.64-7.67,46.63,13.52,22.23,5.83-6.63-3.67-16.5-2-22.23-5.83Z"/>
        <path class="cls-1" d="M497.73,77.1c12.73,12.85,22.26,30.6,22.4,48.87-2.68-19.36-11.12-37.7-26.01-50.97,1.68-.24,2.47,1.28,3.61,2.1Z"/>
        <path class="cls-2" d="M483.67,119.68c-5.59-11.67,27.28,20.66,18.23,17.81-.52-1.68-2.37-4.05-3.76-5.12,0,0,.08-.09.08-.09-3.4-3.99-8-8.01-12.14-10.53,0,0,.06-.07.06-.07-.65-.87-1.61-1.37-2.46-2Z"/>
        <path class="cls-2" d="M419.19,108.7c-.18-3.96,21.1-8.62,15.98-2.65-4.9.4-11.94,4.63-15.98,2.65Z"/>
        <path class="cls-3" d="M443.56,105.54c9.08,2.64,19.18,2.83,27.82,7.49,3.69-.43,2.44,2.59-.08.93-1.92-1.56-4.5-.57-6.21-2.41-1.32-1.72-2.75.64-3.91-.32-.95-1.41-3,.08-3.72-1.3-2.08-.81-14.76-1.13-13.89-4.39Z"/>
        <path class="cls-3" d="M502,137.45c-1.48-.84-3.94-3.23-3.78-5.15,1.48,1.55,2.83,3.21,3.78,5.15Z"/>
        <path class="cls-9" d="M435.41,177.22c-1.12.65-2.66-.24-.96-.93,1.21-.42,3,.19.96.93Z"/>
        <path class="cls-3" d="M502.24,139.56c-.12-.69-.57-1.35-.23-2.09.57.46,1.6,2.05.23,2.09Z"/>
        <path class="cls-14" d="M517.56,113.14c.19.44.32.88.27,1.37-1.06.18-1.48-1.52-.27-1.37Z"/>
        <path class="cls-1" d="M417.32,111.29c-.69-.58-.72-1.16,0-1.75.61.58.7,1.16,0,1.75Z"/>
        <path class="cls-3" d="M447.93,101.12c-.24.38-.49.05-.74,0,.24-.33.49-.34.74,0Z"/>
        <path class="cls-17" d="M473.36,111.75c-.19-.03-.24-.16-.26-.32.19.02.3.11.26.32Z"/>
        <path class="cls-9" d="M465.14,216.27c-.21.04-.34-.06-.41-.26.22-.04.36.03.41.26Z"/>
        <path class="cls-17" d="M375.49,120c-.88,10.26-10.13,7.98-5.67-1.49.51.63.93,1.25,1.75,1.16-.5.78-.78,1.63-.71,2.57,1.07,3.42,4.46-3.82.71-2.56-.26-3.71,3.73-1.28,2.9,1.3.12-.46.39-1.33,1.03-.97ZM373.67,123.32c.5.05.9-.89.35-1.05-.51-.1-.9.84-.35,1.05Z"/>
        <path class="cls-1" d="M371.56,119.67c3.76-1.26.36,5.99-.71,2.56-.08-.94.21-1.79.71-2.56Z"/>
        <path class="cls-17" d="M375.46,117.64c-.74,2.17-2.13-1.7-3.84-.09-2.39-.82,3.19-3.66,3.84.09Z"/>
        <path class="cls-3" d="M487.43,122.56c3.71,3.01,7.79,5.88,10.78,9.73-1.93.75-1.69-3.19-3.74-1.51-.42.36-.84-.19-.77-.55-.02-3.92-6.15-3.34-6.27-7.67Z"/>
        <path class="cls-3" d="M484.4,125.15c-1.82.96-4.92-2.97-6.92-3.9-.58-3.04,6.51,2.5,6.92,3.9Z"/>
        <path class="cls-4" d="M443.51,105.57c-.11-.1-.29-.14-.14-.29.05.1.09.2.14.29Z"/>
        <path class="cls-9" d="M373.67,123.32c-.54-.21-.16-1.16.35-1.05.54.16.15,1.1-.35,1.05Z"/>
      </g>
    </g>
  </g>
</svg>