<?xml version="1.0" encoding="UTF-8"?>
<svg id="Layer_2" data-name="Layer 2" xmlns="http://www.w3.org/2000/svg" viewBox="0 0 360.26 346.91">
  <defs>
    <style>
      .cls-1 {
        fill: #d8ab51;
      }

      .cls-2 {
        fill: #f7f7d5;
        opacity: .3;
      }

      .cls-3 {
        fill: #56727f;
      }

      .cls-4 {
        fill: #f2f2f2;
      }

      .cls-5 {
        fill: #666;
      }

      .cls-6 {
        fill: #999;
      }

      .cls-7 {
        fill: #cadce4;
      }

      .cls-8 {
        fill: #e6f0cd;
        opacity: .6;
      }

      .cls-9 {
        fill: #b68128;
      }

      .cls-10 {
        opacity: .1;
      }

      .cls-11 {
        fill: gray;
      }
    </style>
  </defs>
  <g id="UFO">
    <g id="UFO-2" data-name="UFO">
      <g>
        <path class="cls-1" d="M359.19,154.75c-10.23,30.35-91.29,30.43-181.04.16C88.4,124.65,23.94,75.51,34.17,45.16c10.23-30.35,91.29-30.43,181.04-.16,89.75,30.26,154.21,79.4,143.98,109.76Z"/>
        <path class="cls-7" d="M215.22,45c32.19,10.85,61.12,24.13,84.53,38.11,3.47-27.51-26.95-60.01-72.02-75.21C182.66-7.3,138.8.15,124.9,24.14c27.08,3.05,58.14,10,90.32,20.85Z"/>
        <path class="cls-10" d="M260.8,62.9c14.17,6.42,27.25,13.23,38.95,20.21,3.47-27.51-26.95-60.01-72.02-75.21C203.01-.44,178.64-1.96,159.39,2.32c10.67,1.07,21.86,3.45,33.13,7.25,33.46,11.28,58.84,32.1,68.28,53.33Z"/>
        <path class="cls-3" d="M311.45,132.1c-26.23-24.46-63.67-45.69-105.45-59.78-70.57-23.8-136.49-19.77-165.97-1,.53.81,1.09,1.62,1.68,2.44,10.4-6.61,25.78-11.4,44.64-13.63,35.41-4.17,77.56,1.17,118.69,15.03,70.85,23.89,121.2,66.13,132.59,97.22.93-.31,1.83-.64,2.7-.97-4.46-12.12-14.35-25.75-28.88-39.31Z"/>
        <path class="cls-9" d="M178.15,154.92c53.23,17.95,103.41,25.23,137.56,21.84-2.58-24.63-50.49-62.66-116.31-84.86-65.82-22.19-126.98-20.94-143.95-2.9,25.13,23.37,69.47,47.96,122.7,65.91Z"/>
        <path class="cls-11" d="M238.79,70.53c-1,2.97-4.21,4.56-7.18,3.56-2.97-1-4.56-4.21-3.56-7.18,1-2.96,4.21-4.56,7.18-3.56,2.96,1,4.56,4.21,3.56,7.18Z"/>
        <path class="cls-4" d="M240.06,69.91c-1,2.96-4.21,4.56-7.18,3.56-2.97-1-4.56-4.21-3.56-7.18,1-2.97,4.21-4.56,7.18-3.56,2.96,1,4.56,4.21,3.56,7.18Z"/>
        <path class="cls-6" d="M318.44,112.87c-1,2.96-4.21,4.56-7.18,3.56-2.97-1-4.56-4.21-3.56-7.18,1-2.96,4.21-4.56,7.18-3.56,2.96,1,4.56,4.21,3.56,7.18Z"/>
        <path class="cls-4" d="M319.7,112.24c-1,2.96-4.21,4.56-7.18,3.56-2.96-1-4.56-4.21-3.56-7.18,1-2.96,4.21-4.56,7.18-3.56,2.96,1,4.56,4.21,3.56,7.18Z"/>
        <path class="cls-11" d="M351.64,160.47c-2.97-1-6.18.59-7.18,3.56-.61,1.81-.25,3.71.79,5.15,3.63-2.01,6.93-3.93,9.17-6.62-.64-.74-1.79-1.76-2.79-2.09Z"/>
        <path class="cls-4" d="M352.9,159.85c-2.97-1-6.18.59-7.18,3.56-.61,1.81-.25,3.71.79,5.15,3.63-2.01,6.6-4.36,8.85-7.05-.64-.74-1.47-1.32-2.46-1.65Z"/>
        <path class="cls-11" d="M164.41,48.45c-1,2.96-4.21,4.56-7.18,3.56-2.97-1-4.56-4.21-3.56-7.18,1-2.96,4.21-4.56,7.18-3.56,2.96,1,4.56,4.21,3.56,7.18Z"/>
        <path class="cls-4" d="M163.78,47.18c-1,2.96-4.21,4.56-7.18,3.56-2.97-1-4.56-4.21-3.56-7.18,1-2.96,4.21-4.56,7.18-3.56,2.96,1,4.56,4.21,3.56,7.18Z"/>
        <path class="cls-8" d="M185.71,122.38c-37.37-12.6-66.73-12.61-76.18-.23L0,267.34c46.64,49.01,112.49,79.57,185.49,79.57,15.85,0,31.36-1.45,46.41-4.21l14.11-178.24c-1.22-12.72-26.42-30.66-60.3-42.08Z"/>
        <path class="cls-2" d="M185.71,122.38c-10.48-3.53-20.32-6.08-29.28-7.63l-116.41,186.82c41.31,28.58,91.43,45.34,145.47,45.34.23,0,.46,0,.69,0l27.86-212.48c-8.33-4.4-17.92-8.53-28.33-12.04Z"/>
      </g>
      <g>
        <path class="cls-5" d="M88.23,40.17c-1,2.96-4.21,4.56-7.18,3.56-2.97-1-4.56-4.21-3.56-7.18,1-2.96,4.21-4.56,7.18-3.56,2.96,1,4.56,4.21,3.56,7.18Z"/>
        <path class="cls-4" d="M87.28,39.85c-1,2.96-4.21,4.56-7.18,3.56-2.97-1-4.56-4.21-3.56-7.18,1-2.96,4.21-4.56,7.18-3.56,2.96,1,4.56,4.21,3.56,7.18Z"/>
      </g>
      <g>
        <path class="cls-11" d="M37.37,55.12c-1.28-.43-2.6-.38-3.78.06.38,3.46,1.51,7.07,3.32,10.81,1.82-.45,3.38-1.78,4.02-3.69,1-2.96-.59-6.18-3.56-7.18Z"/>
        <path class="cls-4" d="M37.04,54.39c-1.28-.43-2.6-.38-3.78.06.38,3.46,1.51,7.07,3.32,10.81,1.82-.45,3.38-1.78,4.02-3.69,1-2.96-.59-6.18-3.56-7.18Z"/>
      </g>
    </g>
  </g>
</svg>